<svg width="158" height="62" viewBox="0 0 158 62" fill="none" xmlns="http://www.w3.org/2000/svg">
<path d="M46.001 51.9686H10.6591V51.5671H15.9886V12.5482H10.6591V12.1289H26.7831V12.5304H21.4536V51.5671H40.9651C46.6107 51.5671 47.4463 45.0892 47.8754 44.1791C47.9431 44.0096 48.3835 44.0096 48.4512 44.0096L46.001 51.9686Z" fill="#242424" stroke="#242424" stroke-width="0.25" stroke-miterlimit="10"/>
<path d="M32.5079 13.9134C32.1466 12.4322 33.0837 11.4686 34.7661 11.4686C36.4486 11.4686 37.4309 12.4322 37.0244 13.9134L35.0033 22.274H34.6419L32.5079 13.9134Z" fill="#242424" stroke="#242424" stroke-width="0.25" stroke-miterlimit="10"/>
<path d="M67.3982 52.0221L45.1655 12.5482H40.4005V12.1289H56.4568V12.5304H51.1273L62.9268 33.5968C62.1348 31.2686 61.725 28.8695 61.7073 26.4587C61.7073 16.3315 70.1984 11.1563 77.041 11.1563C81.6479 11.1563 85.4643 13.4851 85.4643 18.1517C85.3358 20.6851 84.5235 23.1675 83.0819 25.4326L67.974 52.0221H67.3982ZM82.585 25.3523C83.6609 23.5908 84.2499 21.6685 84.3126 19.7132C84.3692 18.7901 84.1807 17.8679 83.7591 17.0059C83.3375 16.1439 82.6922 15.3612 81.8647 14.7082C81.0372 14.0551 80.0459 13.5462 78.9546 13.2142C77.8632 12.8821 76.696 12.7343 75.5279 12.7802C69.408 12.7802 62.3509 16.9293 62.3509 26.0839C62.5145 30.6755 63.811 35.1976 66.1674 39.3966L70.3452 46.847L82.585 25.3523Z" fill="#242424" stroke="#242424" stroke-width="0.25" stroke-miterlimit="10"/>
<path d="M85.4644 12.1289H101.622V12.5304H96.2589V51.5671H101.622V51.9686H85.4644V51.5671H90.7939V12.5482H85.4644V12.1289Z" fill="#242424" stroke="#242424" stroke-width="0.25" stroke-miterlimit="10"/>
<path d="M144.936 51.5671H149.69V51.9686H133.633V51.5671H138.963L132.775 40.4227C132.856 40.893 132.902 41.3667 132.911 41.8414C132.838 43.3776 132.19 44.8621 131.048 46.1064C126.655 50.889 116.866 51.9686 109.876 51.9686H95.3442V51.5671H97.2864C98.0227 51.5287 98.7306 51.3277 99.3295 50.987C99.9284 50.6462 100.394 50.1795 100.674 49.6398L122.195 11.9237H122.771L144.936 51.5671ZM130.11 46.3919C131.484 45.0958 132.278 43.4772 132.369 41.7878C132.369 37.8083 128.191 35.6401 123.516 35.6401C121.721 35.6704 119.954 36.0019 118.333 36.6127C111.107 38.9415 105.631 44.5182 101.385 49.6041L101.317 49.6666C100.662 50.7997 101.171 51.5939 102.537 51.5939H105.348C113.907 51.6295 124.713 51.46 130.11 46.3919ZM119.745 17.1613L102.537 47.4983C106.929 42.5463 115.059 35.2118 123.561 35.2118C125.05 35.1762 126.53 35.4092 127.888 35.8931C129.245 36.377 130.446 37.0992 131.398 38.0046L119.745 17.1613Z" fill="#242424" stroke="#242424" stroke-width="0.25" stroke-miterlimit="10"/>
</svg>
