<svg width="37" height="36" viewBox="0 0 37 36" fill="none" xmlns="http://www.w3.org/2000/svg">
<g clip-path="url(#clip0_69_23)">
<path d="M34.3726 -0.379272H2.02961C1.49741 -0.379272 0.98701 -0.167857 0.610687 0.208466C0.234365 0.584788 0.0229492 1.09519 0.0229492 1.62739V33.9708C0.0230831 34.5029 0.234558 35.0132 0.610866 35.3894C0.987174 35.7656 1.4975 35.977 2.02961 35.977H19.4417V21.898H14.7038V16.4113H19.4417V12.3646C19.4417 7.66859 22.3098 5.11204 26.4989 5.11204C28.5056 5.11204 30.23 5.261 30.7329 5.32816V10.2357L27.8274 10.2373C25.5491 10.2373 25.1083 11.3199 25.1083 12.9084V16.4118H30.5415L29.8341 21.8985H25.1083V35.977H34.3731C34.9052 35.9769 35.4154 35.7654 35.7917 35.3891C36.1679 35.0128 36.3792 34.5024 36.3792 33.9703V1.62739C36.3792 1.09519 36.1678 0.584788 35.7915 0.208466C35.4152 -0.167857 34.9048 -0.379272 34.3726 -0.379272Z" fill="#2F2F2F"/>
</g>
<defs>
<clipPath id="clip0_69_23">
<rect width="36.4022" height="36" fill="white"/>
</clipPath>
</defs>
</svg>
