<svg width="36" height="36" viewBox="0 0 36 36" fill="none" xmlns="http://www.w3.org/2000/svg">
<path d="M32.4 31.5H28.8V11.8125L18 20.25L7.2 11.8125V31.5H3.6V4.5H5.76L18 14.0625L30.24 4.5H32.4V31.5ZM32.4 0H3.6C1.602 0 0 2.0025 0 4.5V31.5C0 32.6935 0.379284 33.8381 1.05442 34.682C1.72955 35.5259 2.64522 36 3.6 36H32.4C33.3548 36 34.2705 35.5259 34.9456 34.682C35.6207 33.8381 36 32.6935 36 31.5V4.5C36 3.30653 35.6207 2.16193 34.9456 1.31802C34.2705 0.474106 33.3548 0 32.4 0Z" fill="#2F2F2F"/>
</svg>
