<svg width="36" height="36" viewBox="0 0 36 36" fill="none" xmlns="http://www.w3.org/2000/svg">
<g clip-path="url(#clip0_69_25)">
<path fill-rule="evenodd" clip-rule="evenodd" d="M10.696 0.173219C12.6247 0.0851775 13.2396 0.0656128 18.1525 0.0656128C23.0654 0.0656128 23.6804 0.0868079 25.6074 0.173219C27.5344 0.25963 28.8498 0.564514 30.0007 1.00635C31.2059 1.45797 32.2993 2.16393 33.2036 3.07696C34.1244 3.97204 34.8347 5.05463 35.2885 6.25134C35.7357 7.39262 36.0416 8.69693 36.1304 10.6045C36.2191 12.5202 36.2389 13.13 36.2389 18C36.2389 22.8716 36.2175 23.4814 36.1304 25.3938C36.0432 27.3014 35.7357 28.6057 35.2885 29.747C34.8347 30.9439 34.1232 32.0282 33.2036 32.9246C32.2993 33.8377 31.2059 34.542 30.0007 34.992C28.8498 35.4354 27.5344 35.7387 25.6107 35.8267C23.6804 35.9148 23.0654 35.9343 18.1525 35.9343C13.2396 35.9343 12.6247 35.9132 10.696 35.8267C8.77227 35.7403 7.4569 35.4354 6.30595 34.992C5.09897 34.5419 4.0054 33.8364 3.10138 32.9246C2.18125 32.029 1.46919 30.9451 1.01487 29.7486C0.569292 28.6073 0.263468 27.303 0.17468 25.3955C0.0858926 23.4797 0.0661621 22.87 0.0661621 18C0.0661621 13.1284 0.0875369 12.5186 0.17468 10.6078C0.261824 8.69693 0.569292 7.39262 1.01487 6.25134C1.46987 5.05476 2.18246 3.97092 3.10302 3.07533C4.00576 2.16312 5.09823 1.45706 6.30431 1.00635C7.45526 0.564514 8.77063 0.26126 10.6944 0.173219H10.696ZM25.461 3.40141C23.5538 3.31499 22.9816 3.29706 18.1525 3.29706C13.3235 3.29706 12.7513 3.31499 10.844 3.40141C9.07974 3.48129 8.12281 3.77314 7.48486 4.01933C6.64137 4.3454 6.03795 4.73181 5.40492 5.35951C4.80486 5.93839 4.34306 6.64309 4.05338 7.42196C3.8051 8.05456 3.51079 9.00345 3.43022 10.7529C3.34308 12.6441 3.32499 13.2115 3.32499 18C3.32499 22.7885 3.34308 23.3558 3.43022 25.2471C3.51079 26.9965 3.8051 27.9454 4.05338 28.578C4.34276 29.3557 4.80479 30.0617 5.40492 30.6404C5.98862 31.2355 6.70057 31.6937 7.48486 31.9806C8.12281 32.2268 9.07974 32.5187 10.844 32.5986C12.7513 32.685 13.3218 32.7029 18.1525 32.7029C22.9832 32.7029 23.5538 32.685 25.461 32.5986C27.2253 32.5187 28.1822 32.2268 28.8202 31.9806C29.6637 31.6546 30.2671 31.2682 30.9001 30.6404C31.5002 30.0617 31.9623 29.3557 32.2517 28.578C32.4999 27.9454 32.7942 26.9965 32.8748 25.2471C32.962 23.3558 32.98 22.7885 32.98 18C32.98 13.2115 32.962 12.6441 32.8748 10.7529C32.7942 9.00345 32.4999 8.05456 32.2517 7.42196C31.9228 6.58557 31.5331 5.98722 30.9001 5.35951C30.3163 4.76453 29.6056 4.30662 28.8202 4.01933C28.1822 3.77314 27.2253 3.48129 25.461 3.40141ZM15.8424 23.5287C17.1325 24.0612 18.5691 24.1331 19.9068 23.732C21.2444 23.3309 22.4002 22.4818 23.1766 21.3296C23.953 20.1775 24.302 18.7938 24.1638 17.4148C24.0257 16.0359 23.4091 14.7473 22.4193 13.7691C21.7883 13.1438 21.0253 12.665 20.1853 12.3672C19.3453 12.0694 18.4492 11.9599 17.5614 12.0468C16.6736 12.1336 15.8163 12.4145 15.0512 12.8693C14.2861 13.3241 13.6322 13.9415 13.1365 14.677C12.6409 15.4125 12.3159 16.2478 12.1849 17.1228C12.0539 17.9977 12.1201 18.8907 12.3789 19.7372C12.6377 20.5837 13.0826 21.3629 13.6814 22.0185C14.2803 22.6741 15.0184 23.1898 15.8424 23.5287ZM11.5789 11.4817C12.4422 10.6257 13.467 9.94664 14.5949 9.48337C15.7228 9.02011 16.9317 8.78167 18.1525 8.78167C19.3733 8.78167 20.5822 9.02011 21.7101 9.48337C22.838 9.94664 23.8628 10.6257 24.7261 11.4817C25.5893 12.3377 26.2741 13.3539 26.7413 14.4723C27.2085 15.5907 27.4489 16.7894 27.4489 18C27.4489 19.2105 27.2085 20.4093 26.7413 21.5277C26.2741 22.6461 25.5893 23.6623 24.7261 24.5183C22.9827 26.2471 20.6181 27.2183 18.1525 27.2183C15.6869 27.2183 13.3224 26.2471 11.5789 24.5183C9.83553 22.7895 8.85609 20.4448 8.85609 18C8.85609 15.5551 9.83553 13.2104 11.5789 11.4817ZM29.5107 10.1545C29.7247 9.95441 29.8959 9.71378 30.0144 9.44687C30.1328 9.17997 30.1961 8.89221 30.2004 8.60063C30.2046 8.30905 30.1499 8.01958 30.0393 7.74936C29.9288 7.47915 29.7647 7.23367 29.5567 7.02747C29.3488 6.82127 29.1012 6.65854 28.8287 6.54891C28.5562 6.43929 28.2643 6.38499 27.9702 6.38924C27.6762 6.39349 27.386 6.4562 27.1168 6.57366C26.8476 6.69112 26.605 6.86094 26.4032 7.07306C26.0107 7.4856 25.7959 8.03356 25.8042 8.60063C25.8125 9.16769 26.0434 9.70921 26.4478 10.1102C26.8522 10.5113 27.3984 10.7402 27.9702 10.7485C28.5421 10.7567 29.0947 10.5437 29.5107 10.1545Z" fill="#2F2F2F"/>
</g>
<defs>
<clipPath id="clip0_69_25">
<rect width="36" height="36" fill="white"/>
</clipPath>
</defs>
</svg>
