<svg width="36" height="36" viewBox="0 0 36 36" fill="none" xmlns="http://www.w3.org/2000/svg">
<g clip-path="url(#clip0_468_15)">
<path d="M34.7707 9.50943C32.4429 9.50674 30.2111 8.61133 28.5651 7.01963C26.919 5.42792 25.993 3.26988 25.9902 1.01887C25.9902 0.748647 25.8792 0.489494 25.6816 0.298419C25.484 0.107345 25.216 0 24.9366 0H17.9122C17.6327 0 17.3647 0.107345 17.1671 0.298419C16.9695 0.489494 16.8585 0.748647 16.8585 1.01887V23.434C16.8581 24.1024 16.6722 24.7585 16.3202 25.3338C15.9683 25.9091 15.4631 26.3826 14.8575 26.7048C14.2518 27.027 13.5678 27.1862 12.8769 27.1658C12.1859 27.1453 11.5133 26.946 10.9292 26.5885C10.345 26.231 9.87077 25.7286 9.55586 25.1335C9.24095 24.5385 9.09693 23.8726 9.1388 23.2054C9.18068 22.5381 9.40692 21.894 9.79394 21.3401C10.181 20.7863 10.7146 20.3429 11.3391 20.0564C11.5193 19.9738 11.6715 19.8435 11.7782 19.6806C11.8848 19.5177 11.9414 19.3288 11.9415 19.136V11.8868C11.9413 11.7387 11.9078 11.5924 11.8432 11.4582C11.7786 11.3239 11.6845 11.2048 11.5675 11.1093C11.4505 11.0138 11.3134 10.9441 11.1657 10.905C11.0179 10.866 10.8632 10.8585 10.7122 10.8832C4.60098 11.9343 0 17.3292 0 23.434C0 26.7667 1.36913 29.9629 3.80618 32.3195C6.24324 34.6761 9.5486 36 12.9951 36C16.4416 36 19.747 34.6761 22.1841 32.3195C24.6211 29.9629 25.9902 26.7667 25.9902 23.434V16.1202C28.6693 17.5818 31.6947 18.3465 34.7707 18.3396C35.0502 18.3396 35.3182 18.2323 35.5158 18.0412C35.7134 17.8501 35.8244 17.591 35.8244 17.3208V10.5283C35.8244 10.2581 35.7134 9.99893 35.5158 9.80785C35.3182 9.61678 35.0502 9.50943 34.7707 9.50943ZM33.7171 16.2679C30.7733 16.0861 27.9426 15.1037 25.5512 13.4338C25.3936 13.3243 25.2077 13.2591 25.0142 13.2452C24.8207 13.2314 24.6269 13.2695 24.4544 13.3554C24.2818 13.4413 24.1371 13.5716 24.0363 13.732C23.9355 13.8923 23.8824 14.0765 23.8829 14.2642V23.434C23.8829 26.2262 22.7358 28.9042 20.694 30.8786C18.6521 32.853 15.8827 33.9623 12.9951 33.9623C10.1075 33.9623 7.33814 32.853 5.29628 30.8786C3.25442 28.9042 2.10732 26.2262 2.10732 23.434C2.10732 18.7268 5.35083 14.5223 9.83415 13.1808V18.5349C8.95239 19.067 8.22954 19.8124 7.7371 20.6975C7.24465 21.5826 6.99966 22.5766 7.02636 23.5813C7.05306 24.586 7.35052 25.5666 7.88932 26.426C8.42813 27.2855 9.18961 27.994 10.0985 28.4816C11.0073 28.9692 12.032 29.219 13.0713 29.2061C14.1106 29.1933 15.1284 28.9184 16.0241 28.4085C16.9198 27.8986 17.6623 27.1715 18.1783 26.2991C18.6942 25.4266 18.9657 24.439 18.9659 23.434V2.03774H23.9339C24.181 4.46558 25.2911 6.73544 27.075 8.46048C28.859 10.1855 31.2063 11.259 33.7171 11.4979V16.2679Z" fill="#2F2F2F"/>
</g>
<defs>
<clipPath id="clip0_468_15">
<rect width="36" height="36" fill="white"/>
</clipPath>
</defs>
</svg>
