<svg width="36" height="36" viewBox="0 0 36 36" fill="none" xmlns="http://www.w3.org/2000/svg">
<path d="M36 8.19C35.9798 7.41343 35.9197 6.63841 35.82 5.868C35.6856 5.19322 35.4616 4.53944 35.154 3.924C34.8323 3.25639 34.4002 2.64785 33.876 2.124C33.347 1.60597 32.7395 1.17466 32.076 0.846C31.4597 0.5444 30.806 0.326472 30.132 0.198C29.3689 0.0836989 28.5994 0.0175682 27.828 0H8.19C7.41343 0.0202255 6.63841 0.0803044 5.868 0.18C5.19322 0.314403 4.53944 0.538386 3.924 0.846C3.25639 1.16773 2.64785 1.59979 2.124 2.124C1.60597 2.65304 1.17466 3.26051 0.846 3.924C0.5444 4.54025 0.326472 5.19404 0.198 5.868C0.0836989 6.63108 0.0175682 7.40061 0 8.172V27.81C0.0202255 28.5866 0.0803044 29.3616 0.18 30.132C0.314403 30.8068 0.538386 31.4606 0.846 32.076C1.16773 32.7436 1.59979 33.3522 2.124 33.876C2.65304 34.394 3.26051 34.8253 3.924 35.154C4.54025 35.4556 5.19404 35.6735 5.868 35.802C6.63108 35.9163 7.40061 35.9824 8.172 36H27.81C28.5866 35.9798 29.3616 35.9197 30.132 35.82C30.8068 35.6856 31.4606 35.4616 32.076 35.154C32.7436 34.8323 33.3522 34.4002 33.876 33.876C34.394 33.347 34.8253 32.7395 35.154 32.076C35.4556 31.4597 35.6735 30.806 35.802 30.132C35.9163 29.3689 35.9824 28.5994 36 27.828V8.19ZM18.414 30.6C16.2523 30.5893 14.1284 30.0321 12.24 28.98L5.4 30.78L7.2 24.084C6.03921 22.1336 5.41797 19.9096 5.4 17.64C5.40717 15.0893 6.16897 12.5977 7.58945 10.4791C9.00993 8.36046 11.0256 6.70956 13.3825 5.73429C15.7395 4.75902 18.3323 4.50301 20.8344 4.99849C23.3366 5.49397 25.6362 6.71879 27.4436 8.51869C29.251 10.3186 30.4853 12.6131 30.9912 15.1131C31.4971 17.6132 31.2519 20.2071 30.2864 22.5681C29.321 24.929 27.6785 26.9515 25.5658 28.3808C23.4531 29.8101 20.9647 30.5822 18.414 30.6ZM18.414 6.966C16.5057 6.98784 14.6372 7.51497 12.9988 8.49373C11.3604 9.47249 10.0107 10.8679 9.08694 12.5379C8.16321 14.208 7.69851 16.0929 7.74015 18.001C7.7818 19.909 8.32829 21.7719 9.324 23.4L9.576 23.814L8.496 27.756L12.6 26.64L12.996 26.874C14.6332 27.8384 16.4959 28.3537 18.396 28.368C21.2603 28.368 24.0074 27.2301 26.0328 25.2048C28.0581 23.1794 29.196 20.4323 29.196 17.568C29.196 14.7037 28.0581 11.9566 26.0328 9.93125C24.0074 7.90585 21.2603 6.768 18.396 6.768L18.414 6.966ZM24.714 22.302C24.4782 22.6952 24.1626 23.0346 23.7874 23.2982C23.4122 23.5617 22.9859 23.7436 22.536 23.832C21.8638 23.9549 21.1717 23.9116 20.52 23.706C19.9068 23.5143 19.3057 23.2859 18.72 23.022C16.4947 21.9054 14.597 20.2309 13.212 18.162C12.4594 17.2035 12.0027 16.0462 11.898 14.832C11.8873 14.3276 11.9827 13.8266 12.1781 13.3615C12.3734 12.8963 12.6643 12.4775 13.032 12.132C13.1403 12.0092 13.2732 11.9105 13.422 11.8423C13.5708 11.7741 13.7323 11.7379 13.896 11.736H14.4C14.598 11.736 14.868 11.736 15.12 12.294C15.372 12.852 16.038 14.526 16.128 14.688C16.1722 14.7744 16.1953 14.87 16.1953 14.967C16.1953 15.064 16.1722 15.1597 16.128 15.246C16.0484 15.4416 15.9391 15.6237 15.804 15.786C15.642 15.984 15.462 16.218 15.318 16.362C15.174 16.506 14.994 16.686 15.174 17.01C15.6638 17.8365 16.27 18.5883 16.974 19.242C17.7407 19.9194 18.6172 20.4612 19.566 20.844C19.89 21.006 20.088 20.988 20.268 20.844C20.448 20.7 21.078 19.908 21.294 19.584C21.51 19.26 21.726 19.314 22.014 19.422C22.302 19.53 23.904 20.304 24.228 20.466C24.552 20.628 24.75 20.7 24.84 20.844C24.9181 21.3151 24.8747 21.7983 24.714 22.248V22.302Z" fill="#2F2F2F"/>
</svg>
